<mxfile host="Electron" modified="2023-10-24T11:11:00.083Z" agent="Mozilla/5.0 (Macintosh; Intel Mac OS X 10_15_7) AppleWebKit/537.36 (KHTML, like Gecko) draw.io/22.0.3 Chrome/114.0.5735.289 Electron/25.8.4 Safari/537.36" etag="IUoVA7pMemnqSG9PxavM" version="22.0.3" type="device">
  <diagram name="Page-1" id="kOjxygI8i3JtlxQgfmMf">
    <mxGraphModel dx="1062" dy="633" grid="0" gridSize="10" guides="1" tooltips="1" connect="1" arrows="1" fold="1" page="1" pageScale="1" pageWidth="827" pageHeight="1169" math="0" shadow="0">
      <root>
        <mxCell id="0" />
        <mxCell id="1" parent="0" />
        <mxCell id="OK-gGIuRYAifBa58n50K-66" value="" style="rounded=1;whiteSpace=wrap;html=1;shadow=1;fontFamily=Times New Roman;" vertex="1" parent="1">
          <mxGeometry x="50" y="104" width="720" height="485" as="geometry" />
        </mxCell>
        <mxCell id="OK-gGIuRYAifBa58n50K-52" value="" style="rounded=1;whiteSpace=wrap;html=1;shadow=1;fontFamily=Times New Roman;" vertex="1" parent="1">
          <mxGeometry x="406.25" y="129" width="285" height="140" as="geometry" />
        </mxCell>
        <mxCell id="OK-gGIuRYAifBa58n50K-51" value="" style="rounded=1;whiteSpace=wrap;html=1;shadow=1;fontFamily=Times New Roman;" vertex="1" parent="1">
          <mxGeometry x="416.25" y="287" width="285" height="140" as="geometry" />
        </mxCell>
        <mxCell id="OK-gGIuRYAifBa58n50K-50" value="" style="rounded=1;whiteSpace=wrap;html=1;shadow=1;fontFamily=Times New Roman;" vertex="1" parent="1">
          <mxGeometry x="406.25" y="277" width="285" height="140" as="geometry" />
        </mxCell>
        <mxCell id="OK-gGIuRYAifBa58n50K-49" value="" style="rounded=1;whiteSpace=wrap;html=1;shadow=1;fontFamily=Times New Roman;" vertex="1" parent="1">
          <mxGeometry x="416.25" y="433" width="285" height="140" as="geometry" />
        </mxCell>
        <mxCell id="OK-gGIuRYAifBa58n50K-48" value="" style="rounded=1;whiteSpace=wrap;html=1;shadow=1;fontFamily=Times New Roman;" vertex="1" parent="1">
          <mxGeometry x="406.25" y="423" width="285" height="140" as="geometry" />
        </mxCell>
        <mxCell id="tIETKZHOPeAZz86KKGnU-41" value="" style="rounded=1;whiteSpace=wrap;html=1;shadow=1;fontFamily=Times New Roman;" parent="1" vertex="1">
          <mxGeometry x="396.25" y="267" width="285" height="140" as="geometry" />
        </mxCell>
        <mxCell id="OK-gGIuRYAifBa58n50K-17" style="edgeStyle=orthogonalEdgeStyle;rounded=0;orthogonalLoop=1;jettySize=auto;html=1;entryX=0;entryY=0.5;entryDx=0;entryDy=0;shadow=1;fontFamily=Times New Roman;" edge="1" parent="1" source="tIETKZHOPeAZz86KKGnU-2" target="OK-gGIuRYAifBa58n50K-3">
          <mxGeometry relative="1" as="geometry" />
        </mxCell>
        <mxCell id="tIETKZHOPeAZz86KKGnU-2" value="&lt;font color=&quot;#000000&quot;&gt;Accept Queue&lt;/font&gt;" style="outlineConnect=0;dashed=0;verticalLabelPosition=bottom;verticalAlign=top;align=center;html=1;shape=mxgraph.aws3.queue;fillColor=#0050ef;strokeColor=#001DBC;fontColor=#ffffff;fontFamily=Times New Roman;shadow=1;" parent="1" vertex="1">
          <mxGeometry x="260" y="229" width="73.5" height="48" as="geometry" />
        </mxCell>
        <mxCell id="OK-gGIuRYAifBa58n50K-18" style="edgeStyle=orthogonalEdgeStyle;rounded=0;orthogonalLoop=1;jettySize=auto;html=1;shadow=1;fontFamily=Times New Roman;" edge="1" parent="1" source="tIETKZHOPeAZz86KKGnU-3" target="tIETKZHOPeAZz86KKGnU-41">
          <mxGeometry relative="1" as="geometry" />
        </mxCell>
        <mxCell id="tIETKZHOPeAZz86KKGnU-3" value="&lt;font color=&quot;#000000&quot;&gt;Client to Endpoint Queue&lt;/font&gt;" style="outlineConnect=0;dashed=0;verticalLabelPosition=bottom;verticalAlign=top;align=center;html=1;shape=mxgraph.aws3.queue;fillColor=#0050ef;fontColor=#ffffff;strokeColor=#001DBC;fontFamily=Times New Roman;shadow=1;" parent="1" vertex="1">
          <mxGeometry x="260" y="313" width="73.5" height="48" as="geometry" />
        </mxCell>
        <mxCell id="OK-gGIuRYAifBa58n50K-20" style="edgeStyle=orthogonalEdgeStyle;rounded=0;orthogonalLoop=1;jettySize=auto;html=1;shadow=1;fontFamily=Times New Roman;" edge="1" parent="1" source="tIETKZHOPeAZz86KKGnU-4" target="tIETKZHOPeAZz86KKGnU-72">
          <mxGeometry relative="1" as="geometry" />
        </mxCell>
        <mxCell id="tIETKZHOPeAZz86KKGnU-4" value="&lt;font color=&quot;#000000&quot;&gt;Endpoint to Client Queue&lt;/font&gt;" style="outlineConnect=0;dashed=0;verticalLabelPosition=bottom;verticalAlign=top;align=center;html=1;shape=mxgraph.aws3.queue;fillColor=#0050ef;fontColor=#ffffff;strokeColor=#001DBC;fontFamily=Times New Roman;shadow=1;" parent="1" vertex="1">
          <mxGeometry x="260" y="397" width="73.5" height="48" as="geometry" />
        </mxCell>
        <mxCell id="tIETKZHOPeAZz86KKGnU-36" value="" style="shape=cylinder3;whiteSpace=wrap;html=1;boundedLbl=1;backgroundOutline=1;size=15;rotation=-90;fillColor=#0050ef;fontColor=#ffffff;strokeColor=#001DBC;shadow=1;fontFamily=Times New Roman;" parent="1" vertex="1">
          <mxGeometry x="506.25" y="215" width="60" height="230" as="geometry" />
        </mxCell>
        <mxCell id="tIETKZHOPeAZz86KKGnU-37" value="" style="triangle;whiteSpace=wrap;html=1;shadow=1;fontFamily=Times New Roman;" parent="1" vertex="1">
          <mxGeometry x="461.25" y="305" width="40" height="50" as="geometry" />
        </mxCell>
        <mxCell id="tIETKZHOPeAZz86KKGnU-39" value="" style="endArrow=classic;startArrow=none;html=1;rounded=0;entryX=0;entryY=0.5;entryDx=0;entryDy=0;exitX=1;exitY=0.5;exitDx=0;exitDy=0;strokeColor=#FFFFFF;startFill=0;shadow=1;fontFamily=Times New Roman;" parent="1" source="tIETKZHOPeAZz86KKGnU-37" edge="1">
          <mxGeometry width="50" height="50" relative="1" as="geometry">
            <mxPoint x="441.25" y="350" as="sourcePoint" />
            <mxPoint x="611.25" y="330" as="targetPoint" />
          </mxGeometry>
        </mxCell>
        <mxCell id="OK-gGIuRYAifBa58n50K-12" value="send" style="edgeLabel;align=center;verticalAlign=middle;resizable=0;points=[];labelBorderColor=none;html=1;fontFamily=Times New Roman;" vertex="1" connectable="0" parent="tIETKZHOPeAZz86KKGnU-39">
          <mxGeometry x="0.1657" y="2" relative="1" as="geometry">
            <mxPoint x="-14" y="2" as="offset" />
          </mxGeometry>
        </mxCell>
        <mxCell id="tIETKZHOPeAZz86KKGnU-42" value="Client Socket" style="text;html=1;strokeColor=none;fillColor=none;align=center;verticalAlign=middle;whiteSpace=wrap;rounded=0;fontFamily=Times New Roman;" parent="1" vertex="1">
          <mxGeometry x="431.25" y="355" width="90" height="30" as="geometry" />
        </mxCell>
        <mxCell id="tIETKZHOPeAZz86KKGnU-69" value="Endpoint Socket" style="text;html=1;strokeColor=none;fillColor=none;align=center;verticalAlign=middle;whiteSpace=wrap;rounded=0;fontFamily=Times New Roman;" parent="1" vertex="1">
          <mxGeometry x="560" y="355" width="125" height="30" as="geometry" />
        </mxCell>
        <mxCell id="tIETKZHOPeAZz86KKGnU-70" value="" style="verticalLabelPosition=bottom;html=1;verticalAlign=top;strokeWidth=2;shape=mxgraph.lean_mapping.physical_pull;pointerEvents=1;fillColor=#0050ef;fontColor=#ffffff;strokeColor=#001DBC;shadow=1;fontFamily=Times New Roman;" parent="1" vertex="1">
          <mxGeometry x="526.25" y="375" width="25" height="22" as="geometry" />
        </mxCell>
        <mxCell id="tIETKZHOPeAZz86KKGnU-71" value="Client to Endpoint Work" style="text;html=1;strokeColor=none;fillColor=none;align=center;verticalAlign=middle;whiteSpace=wrap;rounded=0;fontFamily=Times New Roman;" parent="1" vertex="1">
          <mxGeometry x="452.5" y="267" width="167.5" height="30" as="geometry" />
        </mxCell>
        <mxCell id="tIETKZHOPeAZz86KKGnU-72" value="" style="rounded=1;whiteSpace=wrap;html=1;shadow=1;fontFamily=Times New Roman;" parent="1" vertex="1">
          <mxGeometry x="396.25" y="413" width="285" height="140" as="geometry" />
        </mxCell>
        <mxCell id="tIETKZHOPeAZz86KKGnU-73" value="" style="shape=cylinder3;whiteSpace=wrap;html=1;boundedLbl=1;backgroundOutline=1;size=15;rotation=-90;fillColor=#0050ef;fontColor=#ffffff;strokeColor=#001DBC;shadow=1;fontFamily=Times New Roman;" parent="1" vertex="1">
          <mxGeometry x="506.25" y="361" width="60" height="230" as="geometry" />
        </mxCell>
        <mxCell id="tIETKZHOPeAZz86KKGnU-77" value="Client Socket" style="text;html=1;strokeColor=none;fillColor=none;align=center;verticalAlign=middle;whiteSpace=wrap;rounded=0;fontFamily=Times New Roman;" parent="1" vertex="1">
          <mxGeometry x="431.25" y="501" width="90" height="30" as="geometry" />
        </mxCell>
        <mxCell id="tIETKZHOPeAZz86KKGnU-78" value="Endpoint Socket" style="text;html=1;strokeColor=none;fillColor=none;align=center;verticalAlign=middle;whiteSpace=wrap;rounded=0;fontFamily=Times New Roman;" parent="1" vertex="1">
          <mxGeometry x="566.25" y="501" width="125" height="30" as="geometry" />
        </mxCell>
        <mxCell id="tIETKZHOPeAZz86KKGnU-79" value="" style="verticalLabelPosition=bottom;html=1;verticalAlign=top;strokeWidth=2;shape=mxgraph.lean_mapping.physical_pull;pointerEvents=1;fillColor=#0050ef;fontColor=#ffffff;strokeColor=#001DBC;shadow=1;fontFamily=Times New Roman;" parent="1" vertex="1">
          <mxGeometry x="526.25" y="521" width="25" height="22" as="geometry" />
        </mxCell>
        <mxCell id="tIETKZHOPeAZz86KKGnU-80" value="Endpoint to Client Work" style="text;html=1;strokeColor=none;fillColor=none;align=center;verticalAlign=middle;whiteSpace=wrap;rounded=0;shadow=1;fontFamily=Times New Roman;" parent="1" vertex="1">
          <mxGeometry x="452.5" y="413" width="167.5" height="30" as="geometry" />
        </mxCell>
        <mxCell id="tIETKZHOPeAZz86KKGnU-81" value="" style="endArrow=classic;startArrow=none;html=1;rounded=0;entryX=0;entryY=0.5;entryDx=0;entryDy=0;exitX=1;exitY=0.5;exitDx=0;exitDy=0;strokeColor=#FFFFFF;startFill=0;shadow=1;fontFamily=Times New Roman;" parent="1" edge="1">
          <mxGeometry width="50" height="50" relative="1" as="geometry">
            <mxPoint x="602.5" y="476" as="sourcePoint" />
            <mxPoint x="492.5" y="476" as="targetPoint" />
          </mxGeometry>
        </mxCell>
        <mxCell id="OK-gGIuRYAifBa58n50K-14" value="send" style="edgeLabel;html=1;align=center;verticalAlign=middle;resizable=0;points=[];fontFamily=Times New Roman;" vertex="1" connectable="0" parent="tIETKZHOPeAZz86KKGnU-81">
          <mxGeometry x="-0.0419" y="-3" relative="1" as="geometry">
            <mxPoint x="-1" y="3" as="offset" />
          </mxGeometry>
        </mxCell>
        <mxCell id="tIETKZHOPeAZz86KKGnU-83" value="" style="triangle;whiteSpace=wrap;html=1;shadow=1;fontFamily=Times New Roman;" parent="1" vertex="1">
          <mxGeometry x="611.25" y="305" width="40" height="50" as="geometry" />
        </mxCell>
        <mxCell id="tIETKZHOPeAZz86KKGnU-85" value="" style="triangle;whiteSpace=wrap;html=1;rotation=-180;shadow=1;fontFamily=Times New Roman;" parent="1" vertex="1">
          <mxGeometry x="602.5" y="451" width="40" height="50" as="geometry" />
        </mxCell>
        <mxCell id="tIETKZHOPeAZz86KKGnU-86" value="" style="triangle;whiteSpace=wrap;html=1;rotation=-180;shadow=1;fontFamily=Times New Roman;" parent="1" vertex="1">
          <mxGeometry x="452.5" y="451" width="40" height="50" as="geometry" />
        </mxCell>
        <mxCell id="OK-gGIuRYAifBa58n50K-1" value="" style="triangle;whiteSpace=wrap;html=1;shadow=1;fontFamily=Times New Roman;" vertex="1" parent="1">
          <mxGeometry x="92.5" y="229" width="40" height="50" as="geometry" />
        </mxCell>
        <mxCell id="OK-gGIuRYAifBa58n50K-2" value="Server Socket" style="text;html=1;strokeColor=none;fillColor=none;align=center;verticalAlign=middle;whiteSpace=wrap;rounded=0;fontFamily=Times New Roman;" vertex="1" parent="1">
          <mxGeometry x="67.5" y="279" width="90" height="30" as="geometry" />
        </mxCell>
        <mxCell id="OK-gGIuRYAifBa58n50K-3" value="" style="rounded=1;whiteSpace=wrap;html=1;shadow=1;fontFamily=Times New Roman;" vertex="1" parent="1">
          <mxGeometry x="396.25" y="119" width="285" height="140" as="geometry" />
        </mxCell>
        <mxCell id="OK-gGIuRYAifBa58n50K-6" value="" style="endArrow=classic;startArrow=none;html=1;rounded=0;entryX=0;entryY=0.5;entryDx=0;entryDy=0;exitX=1;exitY=0.5;exitDx=0;exitDy=0;strokeColor=#FFFFFF;startFill=0;shadow=1;fontFamily=Times New Roman;" edge="1" parent="1">
          <mxGeometry width="50" height="50" relative="1" as="geometry">
            <mxPoint x="501.25" y="182" as="sourcePoint" />
            <mxPoint x="611.25" y="182" as="targetPoint" />
          </mxGeometry>
        </mxCell>
        <mxCell id="OK-gGIuRYAifBa58n50K-7" value="Server Socket" style="text;html=1;strokeColor=none;fillColor=none;align=center;verticalAlign=middle;whiteSpace=wrap;rounded=0;fontFamily=Times New Roman;" vertex="1" parent="1">
          <mxGeometry x="396.25" y="174" width="90" height="30" as="geometry" />
        </mxCell>
        <mxCell id="OK-gGIuRYAifBa58n50K-10" value="Accept Work" style="text;html=1;strokeColor=none;fillColor=none;align=center;verticalAlign=middle;whiteSpace=wrap;rounded=0;fontFamily=Times New Roman;" vertex="1" parent="1">
          <mxGeometry x="452.5" y="119" width="167.5" height="30" as="geometry" />
        </mxCell>
        <mxCell id="OK-gGIuRYAifBa58n50K-21" style="edgeStyle=orthogonalEdgeStyle;rounded=0;orthogonalLoop=1;jettySize=auto;html=1;entryX=0;entryY=0.5;entryDx=0;entryDy=0;entryPerimeter=0;shadow=1;fontFamily=Times New Roman;" edge="1" parent="1" source="OK-gGIuRYAifBa58n50K-1" target="tIETKZHOPeAZz86KKGnU-2">
          <mxGeometry relative="1" as="geometry" />
        </mxCell>
        <mxCell id="OK-gGIuRYAifBa58n50K-32" value="Callback" style="edgeLabel;html=1;align=center;verticalAlign=middle;resizable=0;points=[];fontFamily=Times New Roman;" vertex="1" connectable="0" parent="OK-gGIuRYAifBa58n50K-21">
          <mxGeometry x="-0.2548" y="-3" relative="1" as="geometry">
            <mxPoint x="9" y="-3" as="offset" />
          </mxGeometry>
        </mxCell>
        <mxCell id="OK-gGIuRYAifBa58n50K-22" value="" style="triangle;whiteSpace=wrap;html=1;shadow=1;fontFamily=Times New Roman;" vertex="1" parent="1">
          <mxGeometry x="82.5" y="324.5" width="40" height="50" as="geometry" />
        </mxCell>
        <mxCell id="OK-gGIuRYAifBa58n50K-23" value="" style="triangle;whiteSpace=wrap;html=1;shadow=1;fontFamily=Times New Roman;" vertex="1" parent="1">
          <mxGeometry x="92.5" y="334.5" width="40" height="50" as="geometry" />
        </mxCell>
        <mxCell id="OK-gGIuRYAifBa58n50K-24" value="" style="triangle;whiteSpace=wrap;html=1;shadow=1;fontFamily=Times New Roman;" vertex="1" parent="1">
          <mxGeometry x="102.5" y="344.5" width="40" height="50" as="geometry" />
        </mxCell>
        <mxCell id="OK-gGIuRYAifBa58n50K-25" value="" style="triangle;whiteSpace=wrap;html=1;shadow=1;fontFamily=Times New Roman;" vertex="1" parent="1">
          <mxGeometry x="112.5" y="354.5" width="40" height="50" as="geometry" />
        </mxCell>
        <mxCell id="OK-gGIuRYAifBa58n50K-26" value="Client &amp;amp; Endpoint&lt;br&gt;Sockets" style="text;html=1;strokeColor=none;fillColor=none;align=center;verticalAlign=middle;whiteSpace=wrap;rounded=0;fontFamily=Times New Roman;" vertex="1" parent="1">
          <mxGeometry x="50" y="415" width="115" height="30" as="geometry" />
        </mxCell>
        <mxCell id="OK-gGIuRYAifBa58n50K-27" style="edgeStyle=orthogonalEdgeStyle;rounded=0;orthogonalLoop=1;jettySize=auto;html=1;entryX=0;entryY=0.5;entryDx=0;entryDy=0;entryPerimeter=0;shadow=1;fontFamily=Times New Roman;" edge="1" parent="1" source="OK-gGIuRYAifBa58n50K-25" target="tIETKZHOPeAZz86KKGnU-4">
          <mxGeometry relative="1" as="geometry" />
        </mxCell>
        <mxCell id="OK-gGIuRYAifBa58n50K-30" style="edgeStyle=orthogonalEdgeStyle;rounded=0;orthogonalLoop=1;jettySize=auto;html=1;entryX=0;entryY=0.5;entryDx=0;entryDy=0;entryPerimeter=0;shadow=1;fontFamily=Times New Roman;" edge="1" parent="1" source="OK-gGIuRYAifBa58n50K-25" target="tIETKZHOPeAZz86KKGnU-3">
          <mxGeometry relative="1" as="geometry" />
        </mxCell>
        <mxCell id="OK-gGIuRYAifBa58n50K-33" value="Callback" style="edgeLabel;html=1;align=center;verticalAlign=middle;resizable=0;points=[];fontFamily=Times New Roman;" vertex="1" connectable="0" parent="OK-gGIuRYAifBa58n50K-30">
          <mxGeometry x="-0.7139" relative="1" as="geometry">
            <mxPoint x="16" as="offset" />
          </mxGeometry>
        </mxCell>
        <mxCell id="OK-gGIuRYAifBa58n50K-42" style="edgeStyle=orthogonalEdgeStyle;rounded=0;orthogonalLoop=1;jettySize=auto;html=1;entryX=0.034;entryY=0.011;entryDx=0;entryDy=0;entryPerimeter=0;shadow=1;fontFamily=Times New Roman;" edge="1" parent="1" source="OK-gGIuRYAifBa58n50K-34" target="OK-gGIuRYAifBa58n50K-37">
          <mxGeometry relative="1" as="geometry" />
        </mxCell>
        <mxCell id="OK-gGIuRYAifBa58n50K-45" value="Connect" style="edgeLabel;html=1;align=center;verticalAlign=middle;resizable=0;points=[];fontFamily=Times New Roman;" vertex="1" connectable="0" parent="OK-gGIuRYAifBa58n50K-42">
          <mxGeometry x="0.7524" relative="1" as="geometry">
            <mxPoint x="-2" y="4" as="offset" />
          </mxGeometry>
        </mxCell>
        <mxCell id="OK-gGIuRYAifBa58n50K-34" value="" style="triangle;whiteSpace=wrap;html=1;shadow=1;fontFamily=Times New Roman;" vertex="1" parent="1">
          <mxGeometry x="431.25" y="149" width="28.75" height="30" as="geometry" />
        </mxCell>
        <mxCell id="OK-gGIuRYAifBa58n50K-36" value="" style="shape=cylinder3;whiteSpace=wrap;html=1;boundedLbl=1;backgroundOutline=1;size=15;rotation=-90;fillColor=#0050ef;fontColor=#ffffff;strokeColor=#001DBC;shadow=1;fontFamily=Times New Roman;" vertex="1" parent="1">
          <mxGeometry x="549" y="133" width="36.25" height="164" as="geometry" />
        </mxCell>
        <mxCell id="OK-gGIuRYAifBa58n50K-46" style="edgeStyle=orthogonalEdgeStyle;rounded=0;orthogonalLoop=1;jettySize=auto;html=1;strokeColor=#FFFFFF;shadow=1;fontFamily=Times New Roman;" edge="1" parent="1" source="OK-gGIuRYAifBa58n50K-35" target="OK-gGIuRYAifBa58n50K-37">
          <mxGeometry relative="1" as="geometry" />
        </mxCell>
        <mxCell id="OK-gGIuRYAifBa58n50K-35" value="" style="triangle;whiteSpace=wrap;html=1;shadow=1;fontFamily=Times New Roman;" vertex="1" parent="1">
          <mxGeometry x="525" y="199" width="24" height="30" as="geometry" />
        </mxCell>
        <mxCell id="OK-gGIuRYAifBa58n50K-37" value="" style="triangle;whiteSpace=wrap;html=1;shadow=1;fontFamily=Times New Roman;" vertex="1" parent="1">
          <mxGeometry x="621.25" y="199" width="24" height="30" as="geometry" />
        </mxCell>
        <mxCell id="OK-gGIuRYAifBa58n50K-40" value="New Tunnel" style="text;html=1;strokeColor=none;fillColor=none;align=center;verticalAlign=middle;whiteSpace=wrap;rounded=0;fontFamily=Times New Roman;" vertex="1" parent="1">
          <mxGeometry x="486.25" y="229" width="167.5" height="30" as="geometry" />
        </mxCell>
        <mxCell id="OK-gGIuRYAifBa58n50K-43" style="edgeStyle=orthogonalEdgeStyle;rounded=0;orthogonalLoop=1;jettySize=auto;html=1;entryX=0.032;entryY=-0.014;entryDx=0;entryDy=0;entryPerimeter=0;shadow=1;fontFamily=Times New Roman;" edge="1" parent="1" source="OK-gGIuRYAifBa58n50K-34" target="OK-gGIuRYAifBa58n50K-35">
          <mxGeometry relative="1" as="geometry" />
        </mxCell>
        <mxCell id="OK-gGIuRYAifBa58n50K-44" value="Accept" style="edgeLabel;html=1;align=center;verticalAlign=middle;resizable=0;points=[];fontFamily=Times New Roman;" vertex="1" connectable="0" parent="OK-gGIuRYAifBa58n50K-43">
          <mxGeometry x="0.6017" y="2" relative="1" as="geometry">
            <mxPoint as="offset" />
          </mxGeometry>
        </mxCell>
        <mxCell id="OK-gGIuRYAifBa58n50K-53" value="" style="shape=cylinder3;whiteSpace=wrap;html=1;boundedLbl=1;backgroundOutline=1;size=15;rotation=-90;fillColor=#0050ef;fontColor=#ffffff;strokeColor=#001DBC;shadow=1;fontFamily=Times New Roman;" vertex="1" parent="1">
          <mxGeometry x="176.5" y="427" width="36.25" height="164" as="geometry" />
        </mxCell>
        <mxCell id="OK-gGIuRYAifBa58n50K-54" style="edgeStyle=orthogonalEdgeStyle;rounded=0;orthogonalLoop=1;jettySize=auto;html=1;strokeColor=#FFFFFF;shadow=1;fontFamily=Times New Roman;" edge="1" parent="1" source="OK-gGIuRYAifBa58n50K-55" target="OK-gGIuRYAifBa58n50K-56">
          <mxGeometry relative="1" as="geometry" />
        </mxCell>
        <mxCell id="OK-gGIuRYAifBa58n50K-55" value="" style="triangle;whiteSpace=wrap;html=1;shadow=1;fontFamily=Times New Roman;" vertex="1" parent="1">
          <mxGeometry x="152.5" y="493" width="24" height="30" as="geometry" />
        </mxCell>
        <mxCell id="OK-gGIuRYAifBa58n50K-56" value="" style="triangle;whiteSpace=wrap;html=1;shadow=1;fontFamily=Times New Roman;" vertex="1" parent="1">
          <mxGeometry x="248.75" y="493" width="24" height="30" as="geometry" />
        </mxCell>
        <mxCell id="OK-gGIuRYAifBa58n50K-57" value="" style="shape=cylinder3;whiteSpace=wrap;html=1;boundedLbl=1;backgroundOutline=1;size=15;rotation=-90;fillColor=#0050ef;fontColor=#ffffff;strokeColor=#001DBC;shadow=1;fontFamily=Times New Roman;" vertex="1" parent="1">
          <mxGeometry x="186.5" y="437" width="36.25" height="164" as="geometry" />
        </mxCell>
        <mxCell id="OK-gGIuRYAifBa58n50K-58" style="edgeStyle=orthogonalEdgeStyle;rounded=0;orthogonalLoop=1;jettySize=auto;html=1;strokeColor=#FFFFFF;shadow=1;fontFamily=Times New Roman;" edge="1" parent="1" source="OK-gGIuRYAifBa58n50K-59" target="OK-gGIuRYAifBa58n50K-60">
          <mxGeometry relative="1" as="geometry" />
        </mxCell>
        <mxCell id="OK-gGIuRYAifBa58n50K-59" value="" style="triangle;whiteSpace=wrap;html=1;shadow=1;fontFamily=Times New Roman;" vertex="1" parent="1">
          <mxGeometry x="162.5" y="503" width="24" height="30" as="geometry" />
        </mxCell>
        <mxCell id="OK-gGIuRYAifBa58n50K-60" value="" style="triangle;whiteSpace=wrap;html=1;shadow=1;fontFamily=Times New Roman;" vertex="1" parent="1">
          <mxGeometry x="258.75" y="503" width="24" height="30" as="geometry" />
        </mxCell>
        <mxCell id="OK-gGIuRYAifBa58n50K-61" value="" style="shape=cylinder3;whiteSpace=wrap;html=1;boundedLbl=1;backgroundOutline=1;size=15;rotation=-90;fillColor=#0050ef;fontColor=#ffffff;strokeColor=#001DBC;shadow=1;fontFamily=Times New Roman;" vertex="1" parent="1">
          <mxGeometry x="196.5" y="447" width="36.25" height="164" as="geometry" />
        </mxCell>
        <mxCell id="OK-gGIuRYAifBa58n50K-62" style="edgeStyle=orthogonalEdgeStyle;rounded=0;orthogonalLoop=1;jettySize=auto;html=1;strokeColor=#FFFFFF;shadow=1;fontFamily=Times New Roman;" edge="1" parent="1" source="OK-gGIuRYAifBa58n50K-63" target="OK-gGIuRYAifBa58n50K-64">
          <mxGeometry relative="1" as="geometry" />
        </mxCell>
        <mxCell id="OK-gGIuRYAifBa58n50K-63" value="" style="triangle;whiteSpace=wrap;html=1;shadow=1;fontFamily=Times New Roman;" vertex="1" parent="1">
          <mxGeometry x="172.5" y="513" width="24" height="30" as="geometry" />
        </mxCell>
        <mxCell id="OK-gGIuRYAifBa58n50K-64" value="" style="triangle;whiteSpace=wrap;html=1;shadow=1;fontFamily=Times New Roman;" vertex="1" parent="1">
          <mxGeometry x="268.75" y="513" width="24" height="30" as="geometry" />
        </mxCell>
        <mxCell id="OK-gGIuRYAifBa58n50K-65" value="Tunnels" style="text;html=1;align=center;verticalAlign=middle;resizable=0;points=[];autosize=1;strokeColor=none;fillColor=none;fontFamily=Times New Roman;" vertex="1" parent="1">
          <mxGeometry x="181.5" y="543" width="60" height="30" as="geometry" />
        </mxCell>
        <mxCell id="OK-gGIuRYAifBa58n50K-67" value="&lt;font face=&quot;Times New Roman&quot; style=&quot;font-size: 23px;&quot;&gt;PEP Architecture&lt;/font&gt;" style="text;html=1;strokeColor=none;fillColor=none;align=center;verticalAlign=middle;whiteSpace=wrap;rounded=0;" vertex="1" parent="1">
          <mxGeometry x="112.5" y="144" width="207.5" height="30" as="geometry" />
        </mxCell>
      </root>
    </mxGraphModel>
  </diagram>
</mxfile>
